# xmcd
#
# Track frame offsets:
#	150
#	19921
#	36077
#	52033
#	69188
#	93161
#	124540
#	141701
#	160917
#	177397
#	193647
#	220512
#	234949
#	262011
#	277841
#
# Disc length: 3936 seconds
#
# Revision: 0
# Processed by: cddbd v1.5.1PL0 Copyright (c) Steve Scherf et al.
# Submitted via: dBpowerAMP V4.0
#
DISCID=d00f5e0f
DTITLE=William Fierro - Alma
DYEAR=2004
DGENRE=
TTITLE0=Arriba
TTITLE1=Atardecer
TTITLE2=Sufficiente
TTITLE3=Alma
TTITLE4=Maria
TTITLE5=Nubes
TTITLE6=Sobre Montanas
TTITLE7=Por Amor
TTITLE8=Chanteur
TTITLE9=Alegria
TTITLE10=Creciendio
TTITLE11=Tiempo
TTITLE12=Suenos
TTITLE13=Paolis (Paola)
TTITLE14=Puente Del Olvido (Pont Bessières)
EXTD=
EXTT0=
EXTT1=
EXTT2=
EXTT3=
EXTT4=
EXTT5=
EXTT6=
EXTT7=
EXTT8=
EXTT9=
EXTT10=
EXTT11=
EXTT12=
EXTT13=
EXTT14=
PLAYORDER=
